<mxfile host="app.diagrams.net" agent="Mozilla/5.0 (Windows NT 10.0; Win64; x64) AppleWebKit/537.36 (KHTML, like Gecko) Chrome/127.0.0.0 Safari/537.36 Edg/127.0.0.0" version="24.7.6">
  <diagram name="第 1 页" id="pwynU2H1yq3AJXYQGxQ-">
    <mxGraphModel dx="1053" dy="635" grid="1" gridSize="10" guides="1" tooltips="1" connect="1" arrows="1" fold="1" page="1" pageScale="1" pageWidth="3300" pageHeight="4681" math="0" shadow="0">
      <root>
        <mxCell id="0" />
        <mxCell id="1" parent="0" />
        <mxCell id="Z-FcbRnMZewdZYJsf3xK-1" value="" style="rounded=0;whiteSpace=wrap;html=1;" vertex="1" parent="1">
          <mxGeometry x="140" y="70" width="820" height="570" as="geometry" />
        </mxCell>
        <mxCell id="Z-FcbRnMZewdZYJsf3xK-2" value="MCU" style="rounded=0;whiteSpace=wrap;html=1;" vertex="1" parent="1">
          <mxGeometry x="150" y="600" width="570" height="30" as="geometry" />
        </mxCell>
        <mxCell id="Z-FcbRnMZewdZYJsf3xK-3" value="" style="rounded=0;whiteSpace=wrap;html=1;" vertex="1" parent="1">
          <mxGeometry x="150" y="480" width="570" height="110" as="geometry" />
        </mxCell>
        <mxCell id="Z-FcbRnMZewdZYJsf3xK-4" value="GPIO" style="rounded=0;whiteSpace=wrap;html=1;" vertex="1" parent="1">
          <mxGeometry x="160" y="490" width="70" height="90" as="geometry" />
        </mxCell>
        <mxCell id="Z-FcbRnMZewdZYJsf3xK-5" value="I2C" style="rounded=0;whiteSpace=wrap;html=1;" vertex="1" parent="1">
          <mxGeometry x="240" y="490" width="70" height="90" as="geometry" />
        </mxCell>
        <mxCell id="Z-FcbRnMZewdZYJsf3xK-6" value="SPI" style="rounded=0;whiteSpace=wrap;html=1;" vertex="1" parent="1">
          <mxGeometry x="320" y="490" width="70" height="90" as="geometry" />
        </mxCell>
        <mxCell id="Z-FcbRnMZewdZYJsf3xK-7" value="PWM" style="rounded=0;whiteSpace=wrap;html=1;" vertex="1" parent="1">
          <mxGeometry x="400" y="490" width="70" height="90" as="geometry" />
        </mxCell>
        <mxCell id="Z-FcbRnMZewdZYJsf3xK-8" value="USART" style="rounded=0;whiteSpace=wrap;html=1;" vertex="1" parent="1">
          <mxGeometry x="480" y="490" width="70" height="90" as="geometry" />
        </mxCell>
        <mxCell id="Z-FcbRnMZewdZYJsf3xK-9" value="" style="rounded=0;whiteSpace=wrap;html=1;" vertex="1" parent="1">
          <mxGeometry x="150" y="330" width="650" height="140" as="geometry" />
        </mxCell>
        <mxCell id="Z-FcbRnMZewdZYJsf3xK-10" value="NorFlash模块" style="rounded=0;whiteSpace=wrap;html=1;" vertex="1" parent="1">
          <mxGeometry x="160" y="340" width="50" height="120" as="geometry" />
        </mxCell>
        <mxCell id="Z-FcbRnMZewdZYJsf3xK-11" value="RTC模块" style="rounded=0;whiteSpace=wrap;html=1;" vertex="1" parent="1">
          <mxGeometry x="220" y="340" width="50" height="120" as="geometry" />
        </mxCell>
        <mxCell id="Z-FcbRnMZewdZYJsf3xK-12" value="显示模块" style="rounded=0;whiteSpace=wrap;html=1;" vertex="1" parent="1">
          <mxGeometry x="280" y="340" width="50" height="120" as="geometry" />
        </mxCell>
        <mxCell id="Z-FcbRnMZewdZYJsf3xK-13" value="POE模块" style="rounded=0;whiteSpace=wrap;html=1;" vertex="1" parent="1">
          <mxGeometry x="340" y="340" width="50" height="120" as="geometry" />
        </mxCell>
        <mxCell id="Z-FcbRnMZewdZYJsf3xK-14" value="电化学传感器模块" style="rounded=0;whiteSpace=wrap;html=1;" vertex="1" parent="1">
          <mxGeometry x="400" y="340" width="50" height="120" as="geometry" />
        </mxCell>
        <mxCell id="Z-FcbRnMZewdZYJsf3xK-15" value="压差传感器模块" style="rounded=0;whiteSpace=wrap;html=1;" vertex="1" parent="1">
          <mxGeometry x="460" y="340" width="50" height="120" as="geometry" />
        </mxCell>
        <mxCell id="Z-FcbRnMZewdZYJsf3xK-16" value="NOIR传感器模块" style="rounded=0;whiteSpace=wrap;html=1;" vertex="1" parent="1">
          <mxGeometry x="520" y="340" width="50" height="120" as="geometry" />
        </mxCell>
        <mxCell id="Z-FcbRnMZewdZYJsf3xK-17" value="" style="rounded=0;whiteSpace=wrap;html=1;" vertex="1" parent="1">
          <mxGeometry x="150" y="150" width="570" height="170" as="geometry" />
        </mxCell>
        <mxCell id="Z-FcbRnMZewdZYJsf3xK-18" value="文件系统" style="rounded=0;whiteSpace=wrap;html=1;" vertex="1" parent="1">
          <mxGeometry x="160" y="170" width="90" height="140" as="geometry" />
        </mxCell>
        <mxCell id="Z-FcbRnMZewdZYJsf3xK-19" value="显示系统" style="rounded=0;whiteSpace=wrap;html=1;" vertex="1" parent="1">
          <mxGeometry x="260" y="170" width="90" height="140" as="geometry" />
        </mxCell>
        <mxCell id="Z-FcbRnMZewdZYJsf3xK-20" value="TCP/IP" style="rounded=0;whiteSpace=wrap;html=1;" vertex="1" parent="1">
          <mxGeometry x="360" y="170" width="90" height="140" as="geometry" />
        </mxCell>
        <mxCell id="Z-FcbRnMZewdZYJsf3xK-21" value="通信系统" style="rounded=0;whiteSpace=wrap;html=1;" vertex="1" parent="1">
          <mxGeometry x="460" y="170" width="90" height="140" as="geometry" />
        </mxCell>
        <mxCell id="Z-FcbRnMZewdZYJsf3xK-22" value="应用层" style="rounded=0;whiteSpace=wrap;html=1;" vertex="1" parent="1">
          <mxGeometry x="150" y="80" width="570" height="60" as="geometry" />
        </mxCell>
        <mxCell id="Z-FcbRnMZewdZYJsf3xK-24" value="LED报警模块" style="rounded=0;whiteSpace=wrap;html=1;" vertex="1" parent="1">
          <mxGeometry x="580" y="340" width="50" height="120" as="geometry" />
        </mxCell>
        <mxCell id="Z-FcbRnMZewdZYJsf3xK-25" value="KEY模块" style="rounded=0;whiteSpace=wrap;html=1;" vertex="1" parent="1">
          <mxGeometry x="640" y="340" width="50" height="120" as="geometry" />
        </mxCell>
        <mxCell id="Z-FcbRnMZewdZYJsf3xK-26" value="RTOS" style="rounded=0;whiteSpace=wrap;html=1;" vertex="1" parent="1">
          <mxGeometry x="830" y="80" width="120" height="550" as="geometry" />
        </mxCell>
        <mxCell id="Z-FcbRnMZewdZYJsf3xK-27" value="电流故障输出模块" style="rounded=0;whiteSpace=wrap;html=1;" vertex="1" parent="1">
          <mxGeometry x="700" y="340" width="50" height="120" as="geometry" />
        </mxCell>
        <mxCell id="Z-FcbRnMZewdZYJsf3xK-29" value="自检校准系统" style="rounded=0;whiteSpace=wrap;html=1;" vertex="1" parent="1">
          <mxGeometry x="560" y="170" width="90" height="140" as="geometry" />
        </mxCell>
      </root>
    </mxGraphModel>
  </diagram>
</mxfile>
